# xmcd
# 
# Track frame offsets:
#     150
#     18694
#     34597
#     56074
#     70253
#     95540
#     117089
#     138199
#     156457
#     182673
#     195508
#     207375
#     220625
#     235431
#     256935
#     270436
#     297986
#     312423
#     327718
#     342868
# 
# Disc length: 4778
# 
# Revision: 0
# Processed by: cddbd v1.5.2PL0 Copyright (c) Steve Scherf et al.
# Submitted via: fre:ac v1.0.31
# 
DISCID=3312a814
DTITLE=Various Artist - The Best Of Country Music
DYEAR=2012
DGENRE=Country
TTITLE0=Alabama - Angels Among Us
TTITLE1=Conway Twitty - The Rose
TTITLE2=diana carter - Strawberry Wine
TTITLE3=George Strait - You Look So Good In Love
TTITLE4=Kenny Rogers - Butterfly Kisses
TTITLE5=Travis Tritt - Tell Me I Was Dreaming
TTITLE6=Garth Brooks - Wrapped Up In You
TTITLE7=Hank Williams Jr. - Outdoor Lovin' Man
TTITLE8=Rednex - Cotton Eye Joe (Boots Super Mix)
TTITLE9=Oak Ridge Boys - Bobbie Sue
TTITLE10=Dolly Parton - Jolene
TTITLE11=Kenny Rogers - Ruby, Don't Take Your Love to Town
TTITLE12=Dolly Parton - Take Me Home Country Roads
TTITLE13=Merle Haggard and Willie Nelson - Pancho And Lefty
TTITLE14=Jamie O'Neal - When I Think About Angels
TTITLE15=Maranatha music - I could sing of your love forever
TTITLE16=Jo Dee Messina - I'm Alright Track
TTITLE17=Garth Brooks - Unanswered Prayers
TTITLE18=James Taylor - Country Road
TTITLE19=Kenny Rogers - The Gambler
EXTD=
EXTT0=
EXTT1=
EXTT2=
EXTT3=
EXTT4=
EXTT5=
EXTT6=
EXTT7=
EXTT8=
EXTT9=
EXTT10=
EXTT11=
EXTT12=
EXTT13=
EXTT14=
EXTT15=
EXTT16=
EXTT17=
EXTT18=
EXTT19=
PLAYORDER=
